<svg xmlns="http://www.w3.org/2000/svg" viewBox="0 0 1000 182" width="1000" height="182" role="img" aria-label="Stack: Flutter, Dart, BLoC / Cubit, Freezed, GoRouter, GetIt, Firebase, RevenueCat, AdMob, SQLite / Drift, Unity, Blender">
<style>
.mono { font-family: ui-monospace, "JetBrains Mono", "SF Mono", Menlo, Consolas, monospace; font-size: 16px; }
.eyebrow { fill: #8a8a8a; font-size: 13px; letter-spacing: .14em; }
.chip { fill: #111; stroke: rgba(255,255,255,.26); }
.name { fill: #ececec; }
</style>
<text class="mono eyebrow" x="0" y="46">APPS</text><rect class="chip" x="120" y="24" width="95" height="34" rx="7"/><text class="mono name" x="134" y="46">Flutter</text><rect class="chip" x="225.2" y="24" width="66" height="34" rx="7"/><text class="mono name" x="239.2" y="46">Dart</text><rect class="chip" x="301.6" y="24" width="143" height="34" rx="7"/><text class="mono name" x="315.6" y="46">BLoC / Cubit</text><rect class="chip" x="454.8" y="24" width="95" height="34" rx="7"/><text class="mono name" x="468.8" y="46">Freezed</text><rect class="chip" x="560.0" y="24" width="105" height="34" rx="7"/><text class="mono name" x="574.0" y="46">GoRouter</text><rect class="chip" x="674.8" y="24" width="76" height="34" rx="7"/><text class="mono name" x="688.8" y="46">GetIt</text><text class="mono eyebrow" x="0" y="96">SERVICES</text><rect class="chip" x="120" y="74" width="105" height="34" rx="7"/><text class="mono name" x="134" y="96">Firebase</text><rect class="chip" x="234.8" y="74" width="124" height="34" rx="7"/><text class="mono name" x="248.8" y="96">RevenueCat</text><rect class="chip" x="368.8" y="74" width="76" height="34" rx="7"/><text class="mono name" x="382.8" y="96">AdMob</text><rect class="chip" x="454.8" y="74" width="162" height="34" rx="7"/><text class="mono name" x="468.8" y="96">SQLite / Drift</text><text class="mono eyebrow" x="0" y="146">3D</text><rect class="chip" x="120" y="124" width="76" height="34" rx="7"/><text class="mono name" x="134" y="146">Unity</text><rect class="chip" x="206.0" y="124" width="95" height="34" rx="7"/><text class="mono name" x="220.0" y="146">Blender</text>
</svg>
